<?xml version="1.0" encoding="utf-8"?>
<!-- Generator: Adobe Illustrator 22.1.0, SVG Export Plug-In . SVG Version: 6.00 Build 0)  -->
<svg  version="1.1" id="Layer_1" xmlns="http://www.w3.org/2000/svg" xmlns:xlink="http://www.w3.org/1999/xlink" x="0px" y="0px"
	 viewBox="0 0 1042 1042" style="enable-background:new 0 0 1042 1042;" xml:space="preserve">
<style type="text/css">
	.st0{fill:#4D4F51;}
	.st1{fill:#ECC051;}
</style>
<g>
	<path class="st0" d="M350.2,152c10.2-13.7,23.5-24.8,37.9-34c-2.9,22.8-12.4,45.1-28,62.1c6.8-3.9,13.4-8.1,20.4-11.6
		c1.9-1,4.1-1.8,5.3-3.7c8.9-12.6,22.4-21.8,37.3-25.9c11.1-3.1,22.8-3.6,34.2-2.4c-13.3,17.1-32.5,30.1-54,34
		c-5.7,1.2-11.4,1.1-17.2,1.5c-8.4,4-16.4,8.9-24.3,13.9c12.9-0.3,26.1,0.1,38.6,3.9c6.6,2,13.2,5.5,17.1,11.4
		c-6.5,2.3-13.5,3.1-20.3,3.7c-19.6,1.6-39.2-0.1-58.6-2.8c-13.7,10.9-26.7,22.7-38.4,35.7c17.8-3.2,36-5.5,54-3.6
		c7.8,1,16.6,3,21.4,9.9c-16.4,10.3-36.3,13.6-55.5,13.4c-11.2,0-22.4-1.6-33.3-3.9C274.6,269,264,285.6,254.9,303
		c16.9-12.1,36.3-21.7,57.2-23.7c7.2-0.7,14.5-0.2,21.5,1.5c-12.5,16.6-31.9,26.5-51.5,32.1c-11.3,3.2-22.9,4.9-34.5,5.6
		c-7.8,17.7-13.9,36-18.4,54.8c13.5-15.1,29.9-28.8,49.7-34.6c8.5-2.4,17.6-3,26.2-1.1c-16.2,18.6-35.8,35.1-58.6,45
		c-6.5,2.7-13.3,4.8-20.3,5.9c-3.8,21-5.8,42.5-4.9,63.8c13.5-26.1,35.1-49.6,63.3-59.8c-7.3,22.8-19.3,44.5-36.1,61.7
		c-7.7,7.6-16.5,14.2-26.3,18.8c1.6,18.4,4.8,36.6,9.3,54.5c4.1-17.6,11.1-34.8,22.3-49.1c7.5-9.2,16.9-17.1,28-21.3
		c-3.1,19.3-8.8,38.3-17.2,56c-6.6,13.2-15,26-26.9,35c6.3,18.6,14.1,36.7,23.8,53.8c-1.3-18.4,0.4-37.3,7.2-54.5
		c4.7-11.8,12-22.7,21.7-30.9c2.1,20.5,1.1,41.3-3.3,61.5c-3.1,14-8.4,27.6-16.5,39.5c9.3,14.1,19.3,27.7,30.6,40.3
		c-5.9-29-2.8-59.8,9.6-86.8c5.4,7.5,7.5,16.8,9,25.8c3.7,25.5,0.8,51.5-3.4,76.8c10.8,10.4,22.2,20.1,34.4,28.7
		c-10.5-27.4-13.7-58-6.3-86.6c11,13.7,17.7,30.3,22.2,47.1c4.4,17.4,6.1,35.4,5.1,53.3c13.8,8.3,28.3,15.3,43.3,21.2
		c-19.1-25.2-29.3-56.8-29.2-88.4c26.4,25,44.3,59.1,49,95.3c27.1,8.3,55.4,12.6,83.8,12.5c0,1.8,0,3.7,0,5.5
		c-28.4,0.1-56.8-4.1-84-12.2c-12.9,10.8-29.8,16-46.4,16.5c-17.7,0.4-35.1-4.4-51.1-11.7c19.5-11.5,42.4-17.4,65-16.6
		c-10.8-4.8-21.4-10.1-31.7-16.1c-21.1,6.4-44.3,8-65.5,1.1c-12.7-4.1-24.1-11.8-33.1-21.6c22.8-6.5,47.8-6.6,70.2,1.7
		c-9.6-7.4-18.9-15.2-27.7-23.5c-20,2.6-41-1.1-58.4-11.4c-14.1-8.3-25.3-20.8-33.1-35c14.2-1.3,28.1,3.4,41,8.8
		c10.4,4.4,20.1,10.1,29.7,15.9c-9.9-11.5-19.1-23.7-27.3-36.5c-16.1-3-31.6-9.8-44.3-20.4c-15.3-12.5-25.7-30.5-30.2-49.7
		c19.9,6.9,38.6,17.9,53.8,32.6c-4.9-10.4-9.1-21.1-12.9-32c-14.3-8-26.5-19.4-36.2-32.6c-13-17.8-19.9-40.2-18-62.3
		c16.9,14,32.4,30.4,42.4,50.1c-1.8-11.5-3.6-23-4.5-34.6c-9.8-10.1-16.5-22.7-21.4-35.8c-7.8-21.3-10.7-44.2-11-66.8
		c17.1,12.7,27.5,32.7,32.2,53.2c0.9-12,2.3-24,4.5-35.9c-6.4-7.8-9.8-17.6-11.9-27.3c-4.9-24.3-2.8-49.4,1.3-73.7
		c6.3,5.2,9.8,12.8,12.6,20.3c5.3,15.7,6.1,32.5,5.6,49c3.8-13.5,9.1-26.4,14.2-39.4c-4.1-23.8-5.4-48.4,0-72.1
		c3-12.6,8.2-24.9,17-34.5c5.8,22.6,7.4,46.7,2.8,69.7c6.4-10.3,13.4-20.2,20.9-29.8c-2.6-23.7,1.7-48.6,14.5-68.9
		c6.7-10.8,15.8-19.9,26.2-27.1c-2,23.3-6.1,46.7-15.5,68.2c7.8-8,16.3-15.3,25-22.3C332.8,182.1,340.1,165.6,350.2,152z"/>
	<path class="st0" d="M677.9,118c16,10.2,30.8,23,41.4,39c8.1,12.5,13.9,27.2,13.4,42.4c8.7,7,17.1,14.3,25,22.3
		c-9.4-21.5-13.6-44.9-15.5-68.1c15.8,10.8,28.1,26.6,34.7,44.5c6,16.4,7.8,34.2,5.9,51.4c7.5,9.6,14.5,19.5,20.9,29.8
		c-4.7-23-3-47,2.8-69.6c10.9,11.7,16.2,27.5,18.8,43.1c3.2,21.1,2,42.7-1.8,63.6c5.6,12.8,10.3,26,14.5,39.3
		c-0.9-12.7,0-25.6,2.5-38.1c2.6-11.4,6.5-23.4,15.5-31.3c4,23.3,6,47.4,1.9,70.8c-2,10.7-5.5,21.6-12.4,30.2
		c2.1,11.9,3.7,23.8,4.5,35.9c4.7-20.5,15.1-40.5,32.2-53.2c-0.4,21.7-3,43.5-10.1,64.1c-4.8,13.7-11.5,26.9-21.4,37.5
		c-1.5,1.4-1.1,3.6-1.4,5.4c-0.8,10.1-2.6,20.1-4,30.1c9.8-19.8,25.5-36.1,42.3-50c1.6,19.4-3.5,39.1-13.6,55.6
		c-10,16.2-24.1,29.9-40.6,39.3c-3.8,10.9-8,21.7-13,32.1c15.2-14.8,34-25.8,54-32.8c-3.5,14.5-10.1,28.4-20,39.7
		c-13.9,16.1-33.7,26.6-54.5,30.4c-8,12.9-17.3,25-27.2,36.5c13.9-8.6,28.4-16.5,44.1-21.2c8.6-2.5,17.6-4.4,26.6-3.4
		c-6.7,12-15.6,23-26.8,31c-18.4,13.4-42.2,18.4-64.6,15.5c-8.9,8.4-18.2,16.3-28,23.7c22.4-8.6,47.5-8.2,70.4-1.9
		c-9.8,11-22.8,19.1-37.1,22.9c-20.1,5.4-41.6,3.8-61.4-2.3c-10.3,5.9-20.9,11.3-31.8,16.1c22.6-0.8,45.5,5.1,65,16.6
		c-16.8,7.8-35.3,12.7-53.9,11.6c-15.7-0.9-31.4-6.1-43.5-16.3c-27.2,8-55.6,12.3-84,12.2c0-1.8,0-3.7,0-5.5
		c28.3,0.1,56.7-4.2,83.7-12.5c4.7-36.1,22.7-70.2,49-95.3c0.1,31.6-10.1,63.2-29.2,88.4c14.9-5.9,29.4-12.9,43.2-21.2
		c-1.1-21.5,1.5-43.3,8.2-63.8c4.4-13.1,10.4-25.8,19-36.6c7.5,28.5,4.3,59.1-6.1,86.4c12.4-8.4,23.6-18.3,34.4-28.5
		c-3-17.7-5.3-35.6-5.1-53.7c0-11.3,1-22.7,3.9-33.7c1.5-5.3,3.4-10.7,6.8-15.2c12.4,26.9,15.6,57.8,9.4,86.8
		c11.3-12.6,21.7-26.2,30.7-40.6c-9.7-14.1-15.1-30.7-18-47.4c-3-17.5-3.5-35.5-1.8-53.2c11.3,8.9,18.9,21.8,23.5,35.3
		c5.5,16,6.6,33.1,5.5,49.9c9.6-17.1,17.5-35.2,23.8-53.7c-13.6-10.5-22.8-25.6-29.7-41.1c-6.9-15.9-11.7-32.8-14.4-49.9
		c14.3,5.6,25.8,16.8,33.8,29.6c7.9,12.5,13.1,26.5,16.4,40.8c4.6-17.9,7.8-36.1,9.3-54.5c-17.8-8.4-32-23-42.8-39.3
		c-8.3-12.8-15.1-26.6-19.6-41.3c28.3,10.2,49.7,33.8,63.4,59.8c0.5-21.4-1.1-42.9-5.1-63.9c-15.8-2.5-30.5-9.9-43.6-18.9
		c-13.1-9.1-25-20-35.4-32c13.1-2.9,26.8,0,38.7,5.9c14.4,7.1,26.7,17.9,37.3,29.9c-4.5-18.8-10.6-37.2-18.4-54.8
		c-21.8-1.3-43.7-6.3-62.6-17.4c-8.9-5.4-17.4-11.9-23.5-20.4c14.9-3.5,30.6-1.3,44.8,3.9c12.2,4.4,23.6,10.8,34,18.5
		c-9.1-17.5-19.7-34.1-31.8-49.6c-20.4,4.4-41.7,5.7-62.1,1.1c-9.3-2.2-18.6-5.3-26.7-10.6c4.8-6.9,13.6-8.8,21.4-9.9
		c18-2,36.3,0.4,54,3.6c-11.9-12.9-24.6-25.2-38.7-35.6c-20.6,2.7-41.6,4.6-62.4,2.3c-5.5-0.6-11-1.6-16.2-3.3
		c5.8-8.8,16.7-11.9,26.5-13.7c9.6-1.8,19.4-1.8,29.2-1.7c-7.4-4.7-14.9-9.1-22.7-13.1c-2.6-1.5-5.8-0.7-8.6-1.1
		c-25.3-1.1-48.8-15.4-64.1-35.2c19.6-2.3,40.5,1.3,56.5,13.3c6.4,4.5,11.5,10.5,16.3,16.6c8.2,4.5,16.5,9,24.4,14.1
		C690.4,163.2,680.8,140.9,677.9,118z"/>
	<g>
		<path class="st0" d="M514.6,212.8c38.8-3.1,78.5,3.6,113.9,19.9c34.2,15.6,64.4,39.8,87.3,69.6C739.9,333.5,755.7,371,761,410
			c6.2,44.1-0.4,90.1-19.5,130.4c-14.8,31.5-36.9,59.4-63.9,81.3c-28.1,22.8-61.6,38.8-97.1,46.1c-44.6,9.3-92.1,5.3-134.3-12
			c-35.9-14.6-67.9-38.5-92.3-68.7c-24.8-30.5-41.5-67.4-47.9-106.2c-8.8-51.9,0.5-106.7,26.7-152.4
			c27.3-47.9,72.1-85.8,124.4-103.7C475.6,218.4,495,214.4,514.6,212.8z M513.7,228.9c-33.5,3-66.3,14.1-94.7,32.1
			c-41,25.8-72.9,65.7-88.6,111.5c-15.6,44.7-15.6,94.7-0.1,139.4c13.1,38.3,37.4,72.6,69,97.8c29.7,23.8,65.8,39.6,103.6,44.8
			c43.3,6.3,88.6-1.2,127.5-21.3c32.3-16.4,60.3-41.3,80.5-71.4C734,527.6,747,486.4,747.3,445c0.7-39-9.8-78-29.7-111.5
			c-19.4-32.9-47.8-60.4-81.2-78.9C599.3,234,555.9,225,513.7,228.9z"/>
	</g>
	<g>
		<path class="st0" d="M515.6,236.8c40.5-3.4,82,5.3,117.5,25.2c35.8,19.8,65.4,50.6,83.9,87.1c18.1,35.2,25.4,75.7,21.2,115
			c-3.8,36.6-17.6,72-39.7,101.4c-22.5,30.3-53.5,54.3-88.6,68.3c-43.1,17.4-92.1,19.5-136.6,6c-35.4-10.7-67.7-31.2-92.6-58.5
			c-28.8-31.4-47.5-71.9-52.4-114.2c-6-48.3,5.9-98.5,33-138.9c26.2-39.5,66.4-69.6,111.9-83.3C486.9,240.7,501.2,238,515.6,236.8z
			 M510.6,243.9c-11.7,1.3-23.3,3.7-34.6,7.1c-44.6,13.2-84,42.6-109.6,81.5c-24.7,36.9-36.3,82.3-32.4,126.5
			c3.2,39.7,18.8,78.2,43.9,109.1c24.5,30.3,58,53.3,95.2,64.9c41.1,13,86.5,12.2,127.1-2.4c34.1-12.2,64.7-33.8,87.5-61.9
			c24.3-29.6,39.8-66.3,43.9-104.4c4.4-38.8-3.1-78.9-21.2-113.6c-18.8-36.4-49.1-66.6-85.4-85.5C590,246.8,549.7,239.4,510.6,243.9
			z"/>
	</g>
	<path class="st0" d="M693.2,805.5c2-2,3.4-4.9,5.8-6.4c2.4,1.6,4.5,3.6,6.8,5.4c-1.8,2.2-3.7,4.5-5.5,6.7
		C697.9,809.3,695.6,807.4,693.2,805.5z"/>
	<path class="st0" d="M407.5,810.1c3.9-1.7,7.8-3.4,11.8-4.8c0.1,2.1,0.4,4.1,0.5,6.2c-4.1,1.5-8.2,3.1-12.3,4.8
		C407.5,814.2,407.5,812.1,407.5,810.1z"/>
	<path class="st0" d="M617.5,816c1.1-4,2.4-9.9,7.6-9.9c4.6,0.3,9.2,0.9,13.9,0.7c-0.7,3-0.8,6.2-2,9c-3.6,0.3-7.3-0.4-10.9-0.6
		c-1.7-0.6-2,1.5-2.7,2.5C621.4,817,619.5,816.5,617.5,816z"/>
	<path class="st0" d="M841.3,807.9c2,1.6,4,3.2,6,4.8c-1.6,2-3.3,4-4.9,6.1c-2-1.7-4-3.3-6-5C838,811.9,839.6,809.9,841.3,807.9z"/>
	<path class="st0" d="M407.5,818.4c6.7-3.3,13.9-5.4,21-7.4c0.4,3.3,0.8,6.6,1.2,9.9c-3.8,0.7-7.5,1.8-11.1,3
		c5.7,5.4,10.5,12.8,9.6,21c-0.3,4.1-4.2,6.5-7.8,7.3c-5.1,1.1-10.3,1.3-15.4,1.2c-1.7,0-3.1-1-4.5-1.8c-0.6,9.7-9.3,15.8-17.3,19.7
		c-2.2-3.2-4.3-6.4-6.3-9.6c5.8-2.5,12-5.2,15.7-10.7c-0.9-5.8-1.8-11.5-2.7-17.2c3.1-0.6,6.2-1.3,9.2-1.9c0.4,2.8,0.3,5.8,1.5,8.4
		c6.2,1.8,13,0.6,19.4,0.3c-2.5-5.8-7.4-10-12.8-13.2C407.2,824.4,407.3,821.4,407.5,818.4z"/>
	<path class="st0" d="M467,812.4c3.1-0.5,6.2-0.9,9.3-1.4c-0.6,14.2,0,28.4-0.4,42.6c-2.5,0.2-5.1,0.5-7.6,0.8
		C467.9,840.4,467.2,826.4,467,812.4z"/>
	<path class="st0" d="M561.4,812.4c3.1-0.4,6.3-0.9,9.4-1.4c-0.7,14.1-0.2,28.3-0.3,42.5c-2.6,0.3-5.1,0.6-7.7,0.9
		C562.4,840.3,561.7,826.4,561.4,812.4z"/>
	<path class="st0" d="M773.7,818.5c6.7-3.5,13.9-5.5,21.1-7.5c0.4,3.3,0.8,6.5,1.2,9.8c-3.8,0.8-7.5,1.9-11.2,3.1
		c5.4,5.4,10.2,12.3,9.7,20.2c-0.1,3-1.9,5.9-4.8,7.1c-4.6,2.1-9.9,2.1-14.8,2.4c-4.4,0-9.7,0.1-12.6-3.9
		c-4.6,4.4-11.5,3.9-17.4,4.1c-6.1-0.3-13.7-0.5-17.3-6.3c-2.9-6.2,0-13,0.8-19.3c2.4,0.5,4.8,1,7.2,1.5c-0.4,3.4-1.8,6.9-0.8,10.3
		c1.9,1.2,4.1,1.4,6.3,1.5c6.2,0.2,12.5,0.1,18.6-0.8c-0.4-2.5-0.7-5.1-1-7.6c2.9-0.4,5.8-0.7,8.8-1c0,3,0.2,6,0.3,9
		c6.1,0.5,12.3,0.3,18.4-0.3c-2.4-5.8-7.3-10.1-12.6-13.1C773.4,824.6,773.5,821.5,773.7,818.5z"/>
	<path class="st0" d="M250.4,820.1c1.4-1.7,2.8-3.3,4.2-5c2.1,1.7,4.1,3.4,6.2,5.1c-1.7,2.1-3.4,4.2-5.2,6.3c-2-1.7-3.9-3.3-6-4.9
		c-1.3,1.7-2.7,3.4-4.1,5.1c-2.1-1.7-4.3-3.5-6.4-5.2c1.8-2.1,3.5-4.1,5.3-6.2C246.4,817,248.4,818.6,250.4,820.1z"/>
	<g>
		<path class="st0" d="M693.8,817.8c3.5-3.4,9.7-3.2,13,0.3c4.4,4.4,4.9,11,4.7,16.9c-0.3,4.2-0.2,8.6-1.9,12.6
			c-1.6,3.8-5.9,5.1-9.7,5.5c-4.9,0.5-9.8,0.6-14.7,0.3c-2.3-0.2-3.7-2.1-5.2-3.5c0.6,4,1.4,9.1-2.1,12c-5.8,4.6-13.9,5.2-21,4.1
			c-4.6-0.6-8.9-4.1-9.2-8.9c-0.4-7.3,1.6-14.4,2.5-21.6c2.4,0.4,4.8,0.9,7.2,1.4c-0.7,4.7-1.7,9.5-2,14.3c-0.4,1.5,1.3,2.4,2.5,2.7
			c4.8,1.1,9.7,0.4,14.4-0.7c-0.9-6.3-1.7-12.7-2.6-19c3-0.7,6-1.3,9-1.9c0.7,2.8-0.2,6.7,2.3,8.7c6.2,0.9,12.6,0.2,18.9,0.4
			c1.2,0,5.3-0.1,3.2-2.1c-3.4-0.2-7.2,0.9-10.3-0.8c-2.2-1.7-3.8-4.5-3.7-7.4C689.3,826.3,690.2,821.1,693.8,817.8z M696.3,830
			c2.6,0,5.2,0,7.9,0c-0.5-2.4-1.2-5.3-4.2-5.5C697.2,824.7,696.6,827.7,696.3,830z"/>
	</g>
	<path class="st0" d="M832,823.6c1.7-2,3.3-4,4.9-6c1.9,1.5,3.8,3.1,5.7,4.6c1.3-1.6,2.6-3.2,3.9-4.7c2,1.7,4,3.3,6,4.9
		c-1.6,2-3.3,4-4.9,6c-1.9-1.5-3.7-3.1-5.6-4.5c-1.3,1.5-2.6,3.1-3.9,4.7C836,826.8,834,825.2,832,823.6z"/>
	<path class="st0" d="M623.7,820c3.1-0.5,6.3-1,9.4-1.5c-0.6,11.6-0.2,23.3-0.3,34.9c-2.6,0.3-5.1,0.6-7.7,0.9
		C624.5,842.9,624,831.5,623.7,820z"/>
	<path class="st0" d="M737.4,824.8c1.8-2.1,3.5-4.1,5.2-6.2c2,1.6,3.9,3.2,5.9,4.8c1.4-1.7,2.8-3.3,4.1-5c2.1,1.7,4.2,3.4,6.2,5.1
		c-1.7,2.1-3.4,4.2-5.2,6.3c-2-1.7-4-3.3-5.9-5c-1.4,1.7-2.8,3.4-4.2,5.1C741.6,828.3,739.5,826.5,737.4,824.8z"/>
	<path class="st0" d="M532.2,826.3c1.9-2.2,3.7-4.5,5.5-6.7c2.3,1.9,4.7,3.8,7,5.8c-1.9,2.2-3.7,4.4-5.5,6.6
		C536.9,830.1,534.6,828.2,532.2,826.3z"/>
	<path class="st0" d="M662.3,819.6c2.3,1.9,4.6,3.8,7,5.7c-1.9,2.2-3.7,4.5-5.5,6.7c-2.3-1.9-4.7-3.8-7-5.8
		C658.6,824,660.4,821.8,662.3,819.6z"/>
	<path class="st0" d="M449.5,820.8c5.8,5,10.8,11.6,12.1,19.3c0.8,3.9-0.2,8.6-3.8,10.9c-4.4,2.7-9.9,3.1-14.9,2.6
		c-3.1-0.3-6.6-1.6-7.8-4.7c-1.4-3.5-0.6-7.4-0.6-11c2.3,0.2,4.7,0.4,7,0.5c0.1,0.7,0.4,2.1,0.5,2.8c3.8,0.5,7.6,0.3,11.4-0.3
		c-2.2-4.8-5.8-8.6-9.7-11.9C445.6,826.3,447.6,823.6,449.5,820.8z"/>
	<path class="st0" d="M490.9,829.1c2-2.8,4-5.6,5.9-8.4c6.5,6.1,12.7,14.1,12.1,23.5c-0.3,5.3-5.4,8.4-10.1,9.1
		c-5,0.7-10.9,1.1-15.1-2.3c-3.4-3.5-2.1-8.8-2-13.2c2.3,0.2,4.6,0.3,6.9,0.5c0.1,0.7,0.4,2.2,0.6,2.9c3.8,0.5,7.6,0.3,11.4-0.3
		C498.5,836.2,494.9,832.4,490.9,829.1z"/>
	<g>
		<path class="st0" d="M293.1,829.7c3-0.5,5.9-1.1,8.9-1.6c0.6,4.1,0.1,8.5,1.5,12.4c3.8,1.6,8.3,0.6,12.3,0c-0.4-3-0.9-6-1.3-9
			c3-0.4,6-0.7,9-1c0,3.4,0.1,6.8,0.3,10.2c3.9,0.7,7.8,0.8,11.7-0.2c0-2.2,0-4.4,0-6.5c2.6,0,5.2,0,7.8,0c0.2,2.4,0.2,4.8,0.5,7.2
			c1.8-0.1,3.5-0.1,5.3-0.2c-0.1-2.9-0.3-5.8-0.4-8.7c2.6-0.1,5.2-0.2,7.8-0.3c0.2,3.1,0.3,6.2,0.3,9.3c2,0,4-0.2,6-0.3
			c-0.4-3.8-0.9-7.5-1.4-11.3c3-0.5,6-1.1,9-1.5c0,6.3,1.6,12.9-0.2,19c-2.2,7.1-12.8,8.5-17.4,3c-3.2,4.5-10.7,4.3-13.9-0.1
			c-3.8,4-9.9,3.7-14.8,2.8c-2.1-0.3-3.6-1.8-4.5-3.6c-2.4,4.5-8.1,4.2-12.5,4.1c-2.6,0-5-1.3-6.7-3.3c-4,4.3-12,4.8-15.8,0
			c-3.2,4.5-10.7,4.4-14,0c-3.9,4.2-10.3,3.8-15.5,2.7c-2-0.3-3.2-2-4.2-3.5c-2.2,4.4-7.7,4.2-11.9,4.1c-2.7,0-5-1.6-6.7-3.6
			c-1.1,3.6-5.6,7.9-9.4,5.5c-2.5-1.2-4.9-2.3-7.4-3.4c0.9,5.9,2.8,11.6,4.4,17.4c-3.6,1.2-7.1,2.4-10.7,3.6
			c-1.4-8.2-2.2-16.4-1.6-24.7c0.4-4.3,2.7-8.1,4.8-11.7c2.2-3.7,5.9-7.1,10.5-7c3.6-0.3,6.6,2.5,8,5.6c1.2,2,1.7,4.8,4.1,5.6
			c4,1.2,8.2,0.5,12.2-0.2c-0.5-3-0.9-6-1.3-9c3-0.3,5.9-0.6,8.9-0.9c0,3.4,0.1,6.8,0.3,10.2c4,0.7,8,0.8,12-0.2
			c0-2.2-0.1-4.4-0.1-6.5c2.6,0,5.2,0,7.9,0c0.1,2.2,0,4.4,0.4,6.6c1.3,1.4,3.6,0.1,5.3,0.4c-0.1-2.9-0.3-5.8-0.3-8.8
			c2.6-0.1,5.2-0.2,7.8-0.3c0.2,3,0.3,6.1,0.3,9.1c2,0.1,4,0.1,6.1-0.1C294.2,837.2,293.6,833.5,293.1,829.7z M218,842.1
			c2.4,1.1,4.7,2.1,7.1,3.1c0-2.2,0.4-5.5-2.2-6.3C220.7,837.9,219.3,840.7,218,842.1z"/>
	</g>
	<path class="st0" d="M852.2,829.7c2.9-0.5,5.9-1.1,8.9-1.6c0.2,6.2,1.6,12.7,0,18.8c-2,7.3-12.9,9-17.4,3.3c-3.2,4.5-10.7,4.4-14,0
		c-3.9,3.9-10.8,4.6-15.3,1.5c-0.7,9.7-9.3,15.8-17.3,19.7c-2.2-3.2-4.3-6.4-6.3-9.6c5.7-2.6,12.2-5.1,15.5-10.8
		c-0.6-5.7-1.7-11.4-2.5-17.1c3.1-0.6,6.2-1.3,9.2-2c0.5,2.8,0.1,6,1.6,8.5c3.7,1.6,7.9,0.8,11.7,0.1c0-2.2,0-4.4,0-6.6
		c2.6,0,5.2,0,7.9,0c0.1,2.2,0.1,4.4,0.4,6.6c1.4,1.3,3.6,0.2,5.3,0.4c-0.1-2.9-0.3-5.8-0.4-8.8c2.6-0.1,5.2-0.2,7.8-0.3
		c0.2,3,0.3,6.1,0.3,9.1c2,0.1,4,0.1,6.1-0.1C853.2,837.2,852.6,833.5,852.2,829.7z"/>
	<g>
		<path class="st0" d="M604.4,829.6c3.8-1.1,8,0.7,10.2,3.9c3.4,4.8,3.9,11.1,3.1,16.8c-0.8,5.6-3,11.3-7.4,15.1
			c-3,2.6-6.5,4.5-10.1,6.1c-2.1-3.2-4.2-6.4-6.2-9.6c5.4-1.9,10.4-4.9,14.7-8.6c-3.6-0.2-8.2,1-10.7-2.3c-3-3.2-2.5-8-1.6-11.9
			C597.3,834.9,600,830.5,604.4,829.6z M603,844c2.6,0,5.1,0,7.7,0c-0.1-2.5-1.5-5.9-4.6-5.4C603.4,839,603.3,841.9,603,844z"/>
	</g>
	<path class="st0" d="M545.3,834c3-0.7,6-1.3,8.9-1.9c0.7,8.3,1.9,16.6,1.7,25c-0.3,4.3-4.5,6.6-8.1,7.9c-5.8,1.7-12.3,2.2-18.1,0.2
		c-3.8-1.3-6.5-5.1-6.5-9.1c-0.1-7,1.7-13.8,2.6-20.7c2.4,0.4,4.8,0.9,7.2,1.4c-0.8,4.8-1.7,9.5-2,14.3c-0.4,1.2,1,2.1,2,2.5
		c4.9,1.3,10,0.6,14.9-0.5C547,846.7,546.2,840.3,545.3,834z"/>
	<path class="st0" d="M579.2,833.9c3.1-0.6,6.2-1.3,9.3-1.9c0.7,7.6,2.2,15.4,0.8,23c-2,8.2-9.7,12.8-16.6,16.4
		c-2.2-3.2-4.3-6.4-6.3-9.6c5.7-2.7,12.2-5.1,15.5-10.8C581.2,845.3,580,839.6,579.2,833.9z"/>
	<path class="st0" d="M322,857.7c2.1,1.7,4.1,3.4,6.2,5.1c-1.7,2.1-3.5,4.2-5.2,6.3c-2-1.6-4-3.3-5.9-5c-1.4,1.7-2.8,3.4-4.2,5.1
		c-2.1-1.8-4.2-3.5-6.3-5.2c1.7-2.1,3.5-4.1,5.2-6.2c1.9,1.6,3.9,3.2,5.9,4.8C319.2,861,320.6,859.3,322,857.7z"/>
</g>
<path class="st1" d="M679.5,347.9c0.1-10-9.5-18.1-19.3-17.2c-4.4,0.1-8.7,0-13,0.1c-8.4,0-16.8,0-25.2,0c-0.2-5.9,0-11.9-0.1-17.8
	c-11.7,0.6-23.2,3.4-34.1,7.4c-4.1,1.8-8.3,3.6-12.3,5.6l0,0.2c-2.7,1.3-5.3,2.7-7.7,4.4c-3.6,0.1-7.2,0.1-10.8,0.1
	c-4.3,0-8.6,0-12.9,0c-7,0-14,0-21,0c-5.3,0-10.7,0-16,0c-5.1,0-10.2,0-15.3,0.1c-5.9-3.4-11.8-6.7-18.2-9.2l0-0.3
	c-11.5-4.2-23.5-7.6-35.8-8.5c-0.2,5.9-0.5,11.8-0.4,17.7c-0.7,0-2,0.1-2.6,0.2c-7.6,0-15.1-0.1-22.7,0c-3.8,0-7.5,0-11.3,0
	c-4.5-0.1-9.3,0.3-13,3.1c-5,3.3-7.7,9.3-7.6,15.2c0,57.4,0,114.7,0,172.1c0,5.6,2.3,11.4,6.9,14.8c3.6,2.8,8.3,3.5,12.7,3.7
	c3.1-0.1,6.2-0.1,9.3,0c6,0,12-0.1,18,0c7.5,0.1,15.1-0.1,22.6,0c4.4,0,8.8,0,13.1,0c3,0,6.1,0,9.1,0c3,0,5.9,0,8.9,0
	c3.4,0,6.8,0,10.2,0c0.7,0,2.1,0,2.8,0c0.1,7.9,0,15.8,0.1,23.8c-1.3,0-2.6,0-3.9,0c-4-0.1-8.1,0.1-12.1-0.1c-2.4,0.1-5,0.1-7.1,1.6
	c-4,2.9-4.2,9.5-0.6,12.8c2,2,5,2.1,7.7,2.2c4-0.2,8,0,12.1-0.1c5.4-0.3,11,0.7,16.3-0.5c0.1,0.2,0.4,0.5,0.5,0.7
	c18.8-0.3,37.6,0,56.3-0.2c7.4,0.2,14.9,0.4,22.3-0.2c7.3-0.9,8.8-12.3,2.1-15.2c-4.9-1.8-10.4-0.7-15.5-1c-2.2,0-4.5,0-6.7,0
	c0.1-7.8-0.3-15.6,0.2-23.3c2.3-0.8,4.9-0.3,7.3-0.4c2.7,0,5.5,0,8.2,0c4.6,0,9.1,0,13.7,0c5.4,0,10.8,0,16.2,0c5.7,0,11.3,0.1,17,0
	c6.9,0,13.8,0,20.8,0c3.7,0,7.5,0,11.3,0c3.5-0.3,7.2-0.4,10.3-2.3c5.8-3.1,9.2-9.8,9.2-16.3C679.5,463.3,679.6,405.6,679.5,347.9z
	 M662.7,522.7c-0.6,0-1.9,0-2.5,0c-3.8,0.1-7.5,0-11.3,0c-6.9,0-13.9,0-20.8,0c-5.7,0-11.3,0-17,0c-5.4,0-10.8,0-16.3,0
	c-4.6,0-9.2,0-13.8,0c-2.7,0-5.3,0-8,0c-3.1,0-6.2,0-9.3,0c-5.5,0-11.1,0-16.6,0c-9,0-18,0-27.1,0c-4.4,0-8.8,0-13.2,0
	c-5.3,0-10.5,0-15.8,0c-3.4,0-6.8,0-10.2,0c-3,0-6,0-8.9,0c-3,0-6,0-9,0c-4.4,0-8.8,0-13.2,0c-7.6,0-15.1,0-22.7,0c-6,0-12,0-18,0
	c-3.1,0-6.2,0-9.3,0c-0.7,0-2.2,0-2.9,0c-0.2-4.2-0.2-8.5-0.2-12.7c0-54.4,0-108.7,0-163.1c1.4,0,2.7,0,4.1,0c3.8,0,7.5,0,11.3,0
	c0.8,0,2.3,0,3.1,0c0.1,46.5-0.2,93,0.2,139.6c5.5-1.4,11-2.6,16.5-3.5c3.3-0.5,6.6-0.8,9.9-1.1c9.1-0.2,18.3-0.3,27.4,0
	c3,0.4,6,0.8,8.9,1.2c10.5,1.5,20.5,5.2,30.7,8c-8.6-9-19-16.3-30.2-21.6c-4.3-2-8.7-3.7-13.2-5.2c-6-1.9-12.1-3.3-18.3-4.2
	c-4.1-0.5-8.1-0.8-12.2-1c-2.5-0.4-6.3-0.2-6.9-3.3c-1.4-8.9-0.6-18-0.8-26.9c-0.2-27.3,0.4-54.7-0.3-82c2.8,0,5.6,0,8.4,0
	c0.5,0,1.6,0,2.2,0c0.2,34.1-0.3,68.2-0.3,102.3c12.1,1,24.1,3.1,35.5,7.5c6.7,2.5,13.1,5.6,19.2,9.1c5.2,3.1,10.2,6.5,15,10.3
	c6.5,4.7,11.7,10.9,17.3,16.5c1.2-41.2,0.4-82.5,0.7-123.7c-0.1-2.3,0.3-4.8-1-6.9c-3.6-5.6-8.2-10.4-12.7-15.1c4,0,8,0,12,0
	c7,0,14,0,21,0c0.9,0,2.6,0,3.5,0c-1.4,1.4-2.8,2.9-4.1,4.4c-2.9,3.2-5.7,6.5-8.1,10.1c-1.5,2.2-1.1,5-1.2,7.5
	c0.2,41.2,0.4,82.5,0.2,123.7c3.5-2.9,6.3-6.5,9.6-9.6c4.1-3.9,8.5-7.6,13-10.9c3.5-2.5,7.2-4.9,11-7.1c2.6-1.5,5.3-2.8,8-4.1
	c4.3-2,8.8-3.8,13.3-5.3c9.1-3,18.5-5,28.1-5.9c1.4-0.2,2.8-0.2,4.1-0.8c0.5-4.6,0.1-9.3,0.2-14c0.1-29.3-0.1-58.7,0.1-88
	c3.2,0,6.4,0,9.6,0.1c0,23.3,0.1,46.7,0,70c-0.6,13.3,0.4,26.6-0.7,39.8c-2.9,2.1-6.3,2.6-9.8,2.5c-3.4,0.1-6.9,0.5-10.2,1
	c-5.8,0.8-11.5,2.2-17.1,3.9c-3,0.9-6,2-8.9,3.3c-4.1,1.8-8.2,3.8-12.1,6.1c-8.4,5-16.4,10.8-23.1,18c8-2.2,15.8-5.5,24-7
	c3.9-0.8,7.7-1.5,11.6-2c2.7-0.3,5.5-0.6,8.2-0.8c7.9-0.3,15.9-0.2,23.8,0c1.3,0.1,2.6,0.3,4,0.5c3.3,0.4,6.6,0.9,9.9,1.5
	c4,0.8,8,1.6,12,2.4c0.4-24.4,0.2-48.9,0.3-73.3c-0.2-22,0.5-44,0.2-66c0.9,0,2.6,0,3.4,0c4.4,0,8.8,0,13.2,0c0.7,0,2,0,2.6,0
	C662.7,405.5,662.8,464.1,662.7,522.7z"/>
</svg>
